STARTFONT 2.1
FONT -Made with Bits'n'Picas by Kreative Software-Sixenate-Regular-R-Regular--8-8-75-75-c-80-iso10646-1
SIZE 8 75 75
FONTBOUNDINGBOX 9 8 -1 -1
STARTPROPERTIES 9
FAMILY_NAME "Sixenate"
WEIGHT_NAME "Regular"
FONT_VERSION "Version 1.0"
FOUNDRY "Made with Bits'n'Picas by Kreative Software"
FONT_ASCENT 7
FONT_DESCENT 1
POINT_SIZE 8
X_HEIGHT 5
CAP_HEIGHT 6
ENDPROPERTIES
CHARS 447
STARTCHAR U+0000
ENCODING 0
SWIDTH 888 0
DWIDTH 8 0
BBX 0 0 0 0
BITMAP
ENDCHAR
STARTCHAR U+0001
ENCODING 1
SWIDTH 888 0
DWIDTH 8 0
BBX 6 6 1 0
BITMAP
F0
E0
F0
B8
1C
08
ENDCHAR
STARTCHAR U+0002
ENCODING 2
SWIDTH 888 0
DWIDTH 8 0
BBX 6 6 1 0
BITMAP
24
34
FC
FC
34
24
ENDCHAR
STARTCHAR U+0003
ENCODING 3
SWIDTH 888 0
DWIDTH 8 0
BBX 6 6 1 0
BITMAP
90
B0
FC
FC
B0
90
ENDCHAR
STARTCHAR U+0004
ENCODING 4
SWIDTH 888 0
DWIDTH 8 0
BBX 7 6 0 0
BITMAP
EE
C6
10
38
6C
C6
ENDCHAR
STARTCHAR U+0005
ENCODING 5
SWIDTH 888 0
DWIDTH 8 0
BBX 7 7 0 0
BITMAP
10
28
44
EE
28
28
38
ENDCHAR
STARTCHAR U+0006
ENCODING 6
SWIDTH 888 0
DWIDTH 8 0
BBX 7 4 0 3
BITMAP
10
38
6C
C6
ENDCHAR
STARTCHAR U+0007
ENCODING 7
SWIDTH 888 0
DWIDTH 8 0
BBX 7 7 0 0
BITMAP
EE
20
30
10
18
08
0E
ENDCHAR
STARTCHAR U+0008
ENCODING 8
SWIDTH 888 0
DWIDTH 8 0
BBX 7 7 0 0
BITMAP
10
28
44
EE
38
28
38
ENDCHAR
STARTCHAR U+0009
ENCODING 9
SWIDTH 888 0
DWIDTH 8 0
BBX 6 3 1 0
BITMAP
84
FC
FC
ENDCHAR
STARTCHAR U+000A
ENCODING 10
SWIDTH 888 0
DWIDTH 8 0
BBX 7 7 0 0
BITMAP
F0
88
D4
A2
D4
88
F0
ENDCHAR
STARTCHAR U+000B
ENCODING 11
SWIDTH 888 0
DWIDTH 8 0
BBX 6 6 1 0
BITMAP
0C
2C
6C
F8
60
20
ENDCHAR
STARTCHAR U+000C
ENCODING 12
SWIDTH 888 0
DWIDTH 8 0
BBX 6 6 1 0
BITMAP
C0
D0
D8
7C
18
10
ENDCHAR
STARTCHAR U+000D
ENCODING 13
SWIDTH 888 0
DWIDTH 8 0
BBX 0 0 0 0
BITMAP
ENDCHAR
STARTCHAR U+000E
ENCODING 14
SWIDTH 888 0
DWIDTH 8 0
BBX 7 6 0 0
BITMAP
C6
6C
38
10
C6
EE
ENDCHAR
STARTCHAR U+000F
ENCODING 15
SWIDTH 888 0
DWIDTH 8 0
BBX 7 7 0 0
BITMAP
0C
12
2A
44
A8
90
E0
ENDCHAR
STARTCHAR U+0010
ENCODING 16
SWIDTH 888 0
DWIDTH 8 0
BBX 6 6 1 0
BITMAP
30
30
30
FC
78
30
ENDCHAR
STARTCHAR U+0011
ENCODING 17
SWIDTH 888 0
DWIDTH 8 0
BBX 7 7 0 0
BITMAP
44
AA
7C
28
7C
AA
44
ENDCHAR
STARTCHAR U+0012
ENCODING 18
SWIDTH 888 0
DWIDTH 8 0
BBX 8 6 0 0
BITMAP
03
06
0C
D8
70
20
ENDCHAR
STARTCHAR U+0013
ENCODING 19
SWIDTH 888 0
DWIDTH 8 0
BBX 7 7 0 0
BITMAP
10
38
7C
FE
7C
38
10
ENDCHAR
STARTCHAR U+0014
ENCODING 20
SWIDTH 888 0
DWIDTH 8 0
BBX 7 7 0 0
BITMAP
08
10
6C
FE
FC
FE
6C
ENDCHAR
STARTCHAR U+0015
ENCODING 21
SWIDTH 888 0
DWIDTH 8 0
BBX 7 7 0 0
BITMAP
EE
EE
EE
00
EE
EE
EE
ENDCHAR
STARTCHAR U+0016
ENCODING 22
SWIDTH 888 0
DWIDTH 8 0
BBX 7 7 0 0
BITMAP
FE
82
BA
82
BA
82
FE
ENDCHAR
STARTCHAR U+0017
ENCODING 23
SWIDTH 888 0
DWIDTH 8 0
BBX 7 7 0 0
BITMAP
1E
22
56
8A
56
22
1E
ENDCHAR
STARTCHAR U+0018
ENCODING 24
SWIDTH 888 0
DWIDTH 8 0
BBX 6 6 1 0
BITMAP
20
60
FC
FC
60
20
ENDCHAR
STARTCHAR U+0019
ENCODING 25
SWIDTH 888 0
DWIDTH 8 0
BBX 6 6 1 0
BITMAP
30
78
FC
30
30
30
ENDCHAR
STARTCHAR U+001A
ENCODING 26
SWIDTH 888 0
DWIDTH 8 0
BBX 6 6 1 0
BITMAP
10
18
FC
FC
18
10
ENDCHAR
STARTCHAR U+001B
ENCODING 27
SWIDTH 888 0
DWIDTH 8 0
BBX 7 7 0 0
BITMAP
E8
C4
A2
12
82
44
38
ENDCHAR
STARTCHAR U+001C
ENCODING 28
SWIDTH 888 0
DWIDTH 8 0
BBX 7 7 0 0
BITMAP
FE
82
AA
92
AA
82
FE
ENDCHAR
STARTCHAR U+001D
ENCODING 29
SWIDTH 888 0
DWIDTH 8 0
BBX 6 6 1 0
BITMAP
30
78
FC
30
FC
30
ENDCHAR
STARTCHAR U+001E
ENCODING 30
SWIDTH 888 0
DWIDTH 8 0
BBX 6 6 1 0
BITMAP
30
FC
30
FC
78
30
ENDCHAR
STARTCHAR U+001F
ENCODING 31
SWIDTH 888 0
DWIDTH 8 0
BBX 6 6 1 0
BITMAP
40
E0
74
3C
1C
3C
ENDCHAR
STARTCHAR U+0020
ENCODING 32
SWIDTH 888 0
DWIDTH 8 0
BBX 0 0 0 0
BITMAP
ENDCHAR
STARTCHAR U+0021
ENCODING 33
SWIDTH 888 0
DWIDTH 8 0
BBX 2 6 3 0
BITMAP
C0
C0
C0
C0
00
C0
ENDCHAR
STARTCHAR U+0022
ENCODING 34
SWIDTH 888 0
DWIDTH 8 0
BBX 5 3 1 3
BITMAP
D8
D8
D8
ENDCHAR
STARTCHAR U+0023
ENCODING 35
SWIDTH 888 0
DWIDTH 8 0
BBX 7 6 0 0
BITMAP
6C
FE
6C
6C
FE
6C
ENDCHAR
STARTCHAR U+0024
ENCODING 36
SWIDTH 888 0
DWIDTH 8 0
BBX 7 8 0 -1
BITMAP
10
7C
D0
7C
16
D6
7C
10
ENDCHAR
STARTCHAR U+0025
ENCODING 37
SWIDTH 888 0
DWIDTH 8 0
BBX 7 6 0 0
BITMAP
76
DC
78
3C
76
DC
ENDCHAR
STARTCHAR U+0026
ENCODING 38
SWIDTH 888 0
DWIDTH 8 0
BBX 6 6 1 0
BITMAP
70
D8
70
DC
D8
7C
ENDCHAR
STARTCHAR U+0027
ENCODING 39
SWIDTH 888 0
DWIDTH 8 0
BBX 2 3 3 3
BITMAP
C0
C0
C0
ENDCHAR
STARTCHAR U+0028
ENCODING 40
SWIDTH 888 0
DWIDTH 8 0
BBX 4 6 2 0
BITMAP
70
C0
C0
C0
C0
70
ENDCHAR
STARTCHAR U+0029
ENCODING 41
SWIDTH 888 0
DWIDTH 8 0
BBX 4 6 2 0
BITMAP
E0
30
30
30
30
E0
ENDCHAR
STARTCHAR U+002A
ENCODING 42
SWIDTH 888 0
DWIDTH 8 0
BBX 6 5 1 1
BITMAP
30
FC
78
FC
30
ENDCHAR
STARTCHAR U+002B
ENCODING 43
SWIDTH 888 0
DWIDTH 8 0
BBX 6 5 1 0
BITMAP
30
30
FC
30
30
ENDCHAR
STARTCHAR U+002C
ENCODING 44
SWIDTH 888 0
DWIDTH 8 0
BBX 3 3 2 -1
BITMAP
60
60
C0
ENDCHAR
STARTCHAR U+002D
ENCODING 45
SWIDTH 888 0
DWIDTH 8 0
BBX 6 1 1 2
BITMAP
FC
ENDCHAR
STARTCHAR U+002E
ENCODING 46
SWIDTH 888 0
DWIDTH 8 0
BBX 2 2 3 0
BITMAP
C0
C0
ENDCHAR
STARTCHAR U+002F
ENCODING 47
SWIDTH 888 0
DWIDTH 8 0
BBX 7 6 0 0
BITMAP
06
0C
18
30
60
C0
ENDCHAR
STARTCHAR U+0030
ENCODING 48
SWIDTH 888 0
DWIDTH 8 0
BBX 6 6 1 0
BITMAP
78
CC
DC
EC
CC
78
ENDCHAR
STARTCHAR U+0031
ENCODING 49
SWIDTH 888 0
DWIDTH 8 0
BBX 6 6 1 0
BITMAP
30
F0
30
30
30
FC
ENDCHAR
STARTCHAR U+0032
ENCODING 50
SWIDTH 888 0
DWIDTH 8 0
BBX 6 6 1 0
BITMAP
78
CC
18
30
60
FC
ENDCHAR
STARTCHAR U+0033
ENCODING 51
SWIDTH 888 0
DWIDTH 8 0
BBX 6 6 1 0
BITMAP
78
CC
18
0C
CC
78
ENDCHAR
STARTCHAR U+0034
ENCODING 52
SWIDTH 888 0
DWIDTH 8 0
BBX 6 6 1 0
BITMAP
18
38
78
D8
FC
18
ENDCHAR
STARTCHAR U+0035
ENCODING 53
SWIDTH 888 0
DWIDTH 8 0
BBX 6 6 1 0
BITMAP
FC
C0
F8
0C
CC
78
ENDCHAR
STARTCHAR U+0036
ENCODING 54
SWIDTH 888 0
DWIDTH 8 0
BBX 6 6 1 0
BITMAP
78
C0
F8
CC
CC
78
ENDCHAR
STARTCHAR U+0037
ENCODING 55
SWIDTH 888 0
DWIDTH 8 0
BBX 6 6 1 0
BITMAP
FC
0C
18
30
30
30
ENDCHAR
STARTCHAR U+0038
ENCODING 56
SWIDTH 888 0
DWIDTH 8 0
BBX 6 6 1 0
BITMAP
78
CC
78
CC
CC
78
ENDCHAR
STARTCHAR U+0039
ENCODING 57
SWIDTH 888 0
DWIDTH 8 0
BBX 6 6 1 0
BITMAP
78
CC
CC
7C
0C
78
ENDCHAR
STARTCHAR U+003A
ENCODING 58
SWIDTH 888 0
DWIDTH 8 0
BBX 2 5 3 0
BITMAP
C0
C0
00
C0
C0
ENDCHAR
STARTCHAR U+003B
ENCODING 59
SWIDTH 888 0
DWIDTH 8 0
BBX 3 6 2 -1
BITMAP
60
60
00
60
60
C0
ENDCHAR
STARTCHAR U+003C
ENCODING 60
SWIDTH 888 0
DWIDTH 8 0
BBX 4 5 2 0
BITMAP
30
60
C0
60
30
ENDCHAR
STARTCHAR U+003D
ENCODING 61
SWIDTH 888 0
DWIDTH 8 0
BBX 6 3 1 1
BITMAP
FC
00
FC
ENDCHAR
STARTCHAR U+003E
ENCODING 62
SWIDTH 888 0
DWIDTH 8 0
BBX 4 5 2 0
BITMAP
C0
60
30
60
C0
ENDCHAR
STARTCHAR U+003F
ENCODING 63
SWIDTH 888 0
DWIDTH 8 0
BBX 6 6 1 0
BITMAP
78
CC
18
30
00
30
ENDCHAR
STARTCHAR U+0040
ENCODING 64
SWIDTH 888 0
DWIDTH 8 0
BBX 7 7 0 -1
BITMAP
3C
66
CE
D6
CE
60
3C
ENDCHAR
STARTCHAR U+0041
ENCODING 65
SWIDTH 888 0
DWIDTH 8 0
BBX 6 6 1 0
BITMAP
78
CC
FC
CC
CC
CC
ENDCHAR
STARTCHAR U+0042
ENCODING 66
SWIDTH 888 0
DWIDTH 8 0
BBX 6 6 1 0
BITMAP
F8
CC
F8
CC
CC
F8
ENDCHAR
STARTCHAR U+0043
ENCODING 67
SWIDTH 888 0
DWIDTH 8 0
BBX 6 6 1 0
BITMAP
78
CC
C0
C0
CC
78
ENDCHAR
STARTCHAR U+0044
ENCODING 68
SWIDTH 888 0
DWIDTH 8 0
BBX 6 6 1 0
BITMAP
F8
CC
CC
CC
CC
F8
ENDCHAR
STARTCHAR U+0045
ENCODING 69
SWIDTH 888 0
DWIDTH 8 0
BBX 6 6 1 0
BITMAP
FC
C0
F8
C0
C0
FC
ENDCHAR
STARTCHAR U+0046
ENCODING 70
SWIDTH 888 0
DWIDTH 8 0
BBX 6 6 1 0
BITMAP
FC
C0
F8
C0
C0
C0
ENDCHAR
STARTCHAR U+0047
ENCODING 71
SWIDTH 888 0
DWIDTH 8 0
BBX 6 6 1 0
BITMAP
78
C0
DC
CC
CC
7C
ENDCHAR
STARTCHAR U+0048
ENCODING 72
SWIDTH 888 0
DWIDTH 8 0
BBX 6 6 1 0
BITMAP
CC
CC
FC
CC
CC
CC
ENDCHAR
STARTCHAR U+0049
ENCODING 73
SWIDTH 888 0
DWIDTH 8 0
BBX 6 6 1 0
BITMAP
FC
30
30
30
30
FC
ENDCHAR
STARTCHAR U+004A
ENCODING 74
SWIDTH 888 0
DWIDTH 8 0
BBX 6 6 1 0
BITMAP
0C
0C
0C
0C
CC
78
ENDCHAR
STARTCHAR U+004B
ENCODING 75
SWIDTH 888 0
DWIDTH 8 0
BBX 6 6 1 0
BITMAP
CC
D8
F0
F0
D8
CC
ENDCHAR
STARTCHAR U+004C
ENCODING 76
SWIDTH 888 0
DWIDTH 8 0
BBX 6 6 1 0
BITMAP
C0
C0
C0
C0
C0
FC
ENDCHAR
STARTCHAR U+004D
ENCODING 77
SWIDTH 888 0
DWIDTH 8 0
BBX 7 6 0 0
BITMAP
C6
EE
FE
D6
C6
C6
ENDCHAR
STARTCHAR U+004E
ENCODING 78
SWIDTH 888 0
DWIDTH 8 0
BBX 6 6 1 0
BITMAP
CC
EC
FC
FC
DC
CC
ENDCHAR
STARTCHAR U+004F
ENCODING 79
SWIDTH 888 0
DWIDTH 8 0
BBX 6 6 1 0
BITMAP
78
CC
CC
CC
CC
78
ENDCHAR
STARTCHAR U+0050
ENCODING 80
SWIDTH 888 0
DWIDTH 8 0
BBX 6 6 1 0
BITMAP
F8
CC
CC
F8
C0
C0
ENDCHAR
STARTCHAR U+0051
ENCODING 81
SWIDTH 888 0
DWIDTH 8 0
BBX 6 7 1 -1
BITMAP
78
CC
CC
FC
DC
78
0C
ENDCHAR
STARTCHAR U+0052
ENCODING 82
SWIDTH 888 0
DWIDTH 8 0
BBX 6 6 1 0
BITMAP
F8
CC
CC
F8
CC
CC
ENDCHAR
STARTCHAR U+0053
ENCODING 83
SWIDTH 888 0
DWIDTH 8 0
BBX 6 6 1 0
BITMAP
78
C0
78
0C
CC
78
ENDCHAR
STARTCHAR U+0054
ENCODING 84
SWIDTH 888 0
DWIDTH 8 0
BBX 6 6 1 0
BITMAP
FC
30
30
30
30
30
ENDCHAR
STARTCHAR U+0055
ENCODING 85
SWIDTH 888 0
DWIDTH 8 0
BBX 6 6 1 0
BITMAP
CC
CC
CC
CC
CC
78
ENDCHAR
STARTCHAR U+0056
ENCODING 86
SWIDTH 888 0
DWIDTH 8 0
BBX 6 6 1 0
BITMAP
CC
CC
78
78
30
30
ENDCHAR
STARTCHAR U+0057
ENCODING 87
SWIDTH 888 0
DWIDTH 8 0
BBX 7 6 0 0
BITMAP
C6
C6
D6
FE
EE
44
ENDCHAR
STARTCHAR U+0058
ENCODING 88
SWIDTH 888 0
DWIDTH 8 0
BBX 6 6 1 0
BITMAP
CC
78
30
30
78
CC
ENDCHAR
STARTCHAR U+0059
ENCODING 89
SWIDTH 888 0
DWIDTH 8 0
BBX 6 6 1 0
BITMAP
CC
CC
78
30
30
30
ENDCHAR
STARTCHAR U+005A
ENCODING 90
SWIDTH 888 0
DWIDTH 8 0
BBX 6 6 1 0
BITMAP
FC
1C
38
70
E0
FC
ENDCHAR
STARTCHAR U+005B
ENCODING 91
SWIDTH 888 0
DWIDTH 8 0
BBX 4 6 2 0
BITMAP
F0
C0
C0
C0
C0
F0
ENDCHAR
STARTCHAR U+005C
ENCODING 92
SWIDTH 888 0
DWIDTH 8 0
BBX 7 6 0 0
BITMAP
C0
60
30
18
0C
06
ENDCHAR
STARTCHAR U+005D
ENCODING 93
SWIDTH 888 0
DWIDTH 8 0
BBX 4 6 2 0
BITMAP
F0
30
30
30
30
F0
ENDCHAR
STARTCHAR U+005E
ENCODING 94
SWIDTH 888 0
DWIDTH 8 0
BBX 6 3 1 3
BITMAP
30
78
CC
ENDCHAR
STARTCHAR U+005F
ENCODING 95
SWIDTH 888 0
DWIDTH 8 0
BBX 6 1 1 0
BITMAP
FC
ENDCHAR
STARTCHAR U+0060
ENCODING 96
SWIDTH 888 0
DWIDTH 8 0
BBX 4 3 2 3
BITMAP
C0
60
30
ENDCHAR
STARTCHAR U+0061
ENCODING 97
SWIDTH 888 0
DWIDTH 8 0
BBX 6 5 1 0
BITMAP
78
0C
7C
CC
7C
ENDCHAR
STARTCHAR U+0062
ENCODING 98
SWIDTH 888 0
DWIDTH 8 0
BBX 6 6 1 0
BITMAP
C0
D8
EC
CC
CC
F8
ENDCHAR
STARTCHAR U+0063
ENCODING 99
SWIDTH 888 0
DWIDTH 8 0
BBX 6 5 1 0
BITMAP
78
CC
C0
CC
78
ENDCHAR
STARTCHAR U+0064
ENCODING 100
SWIDTH 888 0
DWIDTH 8 0
BBX 6 6 1 0
BITMAP
0C
7C
CC
CC
DC
6C
ENDCHAR
STARTCHAR U+0065
ENCODING 101
SWIDTH 888 0
DWIDTH 8 0
BBX 6 5 1 0
BITMAP
78
CC
FC
C0
78
ENDCHAR
STARTCHAR U+0066
ENCODING 102
SWIDTH 888 0
DWIDTH 8 0
BBX 7 7 1 0
BITMAP
1E
30
FC
30
30
30
30
ENDCHAR
STARTCHAR U+0067
ENCODING 103
SWIDTH 888 0
DWIDTH 8 0
BBX 6 6 1 -1
BITMAP
7C
CC
DC
6C
0C
78
ENDCHAR
STARTCHAR U+0068
ENCODING 104
SWIDTH 888 0
DWIDTH 8 0
BBX 6 6 1 0
BITMAP
C0
D8
EC
CC
CC
CC
ENDCHAR
STARTCHAR U+0069
ENCODING 105
SWIDTH 888 0
DWIDTH 8 0
BBX 6 7 1 0
BITMAP
30
00
F0
30
30
30
1C
ENDCHAR
STARTCHAR U+006A
ENCODING 106
SWIDTH 888 0
DWIDTH 8 0
BBX 5 8 1 -1
BITMAP
18
00
78
18
18
18
18
F0
ENDCHAR
STARTCHAR U+006B
ENCODING 107
SWIDTH 888 0
DWIDTH 8 0
BBX 6 6 1 0
BITMAP
C0
CC
D8
F0
D8
CC
ENDCHAR
STARTCHAR U+006C
ENCODING 108
SWIDTH 888 0
DWIDTH 8 0
BBX 6 6 1 0
BITMAP
F0
30
30
30
30
1C
ENDCHAR
STARTCHAR U+006D
ENCODING 109
SWIDTH 888 0
DWIDTH 8 0
BBX 7 5 0 0
BITMAP
EC
FE
D6
D6
D6
ENDCHAR
STARTCHAR U+006E
ENCODING 110
SWIDTH 888 0
DWIDTH 8 0
BBX 6 5 1 0
BITMAP
D8
EC
CC
CC
CC
ENDCHAR
STARTCHAR U+006F
ENCODING 111
SWIDTH 888 0
DWIDTH 8 0
BBX 6 5 1 0
BITMAP
78
CC
CC
CC
78
ENDCHAR
STARTCHAR U+0070
ENCODING 112
SWIDTH 888 0
DWIDTH 8 0
BBX 6 6 1 -1
BITMAP
D8
EC
CC
CC
F8
C0
ENDCHAR
STARTCHAR U+0071
ENCODING 113
SWIDTH 888 0
DWIDTH 8 0
BBX 6 6 1 -1
BITMAP
7C
CC
CC
DC
6C
0C
ENDCHAR
STARTCHAR U+0072
ENCODING 114
SWIDTH 888 0
DWIDTH 8 0
BBX 6 5 1 0
BITMAP
D8
EC
C0
C0
C0
ENDCHAR
STARTCHAR U+0073
ENCODING 115
SWIDTH 888 0
DWIDTH 8 0
BBX 6 5 1 0
BITMAP
7C
C0
78
0C
F8
ENDCHAR
STARTCHAR U+0074
ENCODING 116
SWIDTH 888 0
DWIDTH 8 0
BBX 6 6 1 0
BITMAP
30
FC
30
30
30
1C
ENDCHAR
STARTCHAR U+0075
ENCODING 117
SWIDTH 888 0
DWIDTH 8 0
BBX 6 5 1 0
BITMAP
CC
CC
CC
DC
6C
ENDCHAR
STARTCHAR U+0076
ENCODING 118
SWIDTH 888 0
DWIDTH 8 0
BBX 6 5 1 0
BITMAP
CC
CC
CC
78
30
ENDCHAR
STARTCHAR U+0077
ENCODING 119
SWIDTH 888 0
DWIDTH 8 0
BBX 7 5 0 0
BITMAP
C6
D6
FE
EE
44
ENDCHAR
STARTCHAR U+0078
ENCODING 120
SWIDTH 888 0
DWIDTH 8 0
BBX 6 5 1 0
BITMAP
CC
78
30
78
CC
ENDCHAR
STARTCHAR U+0079
ENCODING 121
SWIDTH 888 0
DWIDTH 8 0
BBX 6 6 1 -1
BITMAP
CC
CC
DC
6C
0C
78
ENDCHAR
STARTCHAR U+007A
ENCODING 122
SWIDTH 888 0
DWIDTH 8 0
BBX 6 5 1 0
BITMAP
FC
18
30
60
FC
ENDCHAR
STARTCHAR U+007B
ENCODING 123
SWIDTH 888 0
DWIDTH 8 0
BBX 4 6 2 0
BITMAP
70
C0
60
60
C0
70
ENDCHAR
STARTCHAR U+007C
ENCODING 124
SWIDTH 888 0
DWIDTH 8 0
BBX 2 6 3 0
BITMAP
C0
C0
C0
C0
C0
C0
ENDCHAR
STARTCHAR U+007D
ENCODING 125
SWIDTH 888 0
DWIDTH 8 0
BBX 4 6 2 0
BITMAP
E0
30
60
60
30
E0
ENDCHAR
STARTCHAR U+007E
ENCODING 126
SWIDTH 888 0
DWIDTH 8 0
BBX 6 3 1 3
BITMAP
6C
FC
D8
ENDCHAR
STARTCHAR U+007F
ENCODING 127
SWIDTH 888 0
DWIDTH 8 0
BBX 6 5 1 0
BITMAP
CC
30
CC
30
CC
ENDCHAR
STARTCHAR U+0080
ENCODING 128
SWIDTH 888 0
DWIDTH 8 0
BBX 6 7 1 0
BITMAP
38
6C
F0
60
F0
6C
38
ENDCHAR
STARTCHAR U+0081
ENCODING 129
SWIDTH 888 0
DWIDTH 8 0
BBX 7 7 0 0
BITMAP
10
38
6C
C6
6C
38
10
ENDCHAR
STARTCHAR U+0082
ENCODING 130
SWIDTH 888 0
DWIDTH 8 0
BBX 3 3 2 -1
BITMAP
60
60
C0
ENDCHAR
STARTCHAR U+0083
ENCODING 131
SWIDTH 888 0
DWIDTH 8 0
BBX 8 8 0 -1
BITMAP
0F
18
7E
18
18
18
18
F0
ENDCHAR
STARTCHAR U+0084
ENCODING 132
SWIDTH 888 0
DWIDTH 8 0
BBX 6 3 1 -1
BITMAP
6C
6C
D8
ENDCHAR
STARTCHAR U+0085
ENCODING 133
SWIDTH 888 0
DWIDTH 8 0
BBX 8 2 0 0
BITMAP
DB
DB
ENDCHAR
STARTCHAR U+0086
ENCODING 134
SWIDTH 888 0
DWIDTH 8 0
BBX 6 5 1 1
BITMAP
30
FC
30
30
30
ENDCHAR
STARTCHAR U+0087
ENCODING 135
SWIDTH 888 0
DWIDTH 8 0
BBX 6 5 1 1
BITMAP
30
FC
30
FC
30
ENDCHAR
STARTCHAR U+0088
ENCODING 136
SWIDTH 888 0
DWIDTH 8 0
BBX 6 2 1 5
BITMAP
78
CC
ENDCHAR
STARTCHAR U+0089
ENCODING 137
SWIDTH 888 0
DWIDTH 8 0
BBX 8 6 0 0
BITMAP
76
DC
78
3E
6B
FE
ENDCHAR
STARTCHAR U+008A
ENCODING 138
SWIDTH 888 0
DWIDTH 8 0
BBX 6 7 1 0
BITMAP
CC
78
7C
C0
78
0C
F8
ENDCHAR
STARTCHAR U+008B
ENCODING 139
SWIDTH 888 0
DWIDTH 8 0
BBX 4 5 2 0
BITMAP
30
60
C0
60
30
ENDCHAR
STARTCHAR U+008C
ENCODING 140
SWIDTH 888 0
DWIDTH 8 0
BBX 6 6 1 0
BITMAP
7C
D8
DC
D8
D8
7C
ENDCHAR
STARTCHAR U+008D
ENCODING 141
SWIDTH 888 0
DWIDTH 8 0
BBX 7 6 0 0
BITMAP
60
60
70
E0
60
7E
ENDCHAR
STARTCHAR U+008E
ENCODING 142
SWIDTH 888 0
DWIDTH 8 0
BBX 6 7 1 0
BITMAP
CC
78
FC
18
30
60
FC
ENDCHAR
STARTCHAR U+008F
ENCODING 143
SWIDTH 888 0
DWIDTH 8 0
BBX 6 5 1 0
BITMAP
F0
30
30
30
1C
ENDCHAR
STARTCHAR U+0090
ENCODING 144
SWIDTH 888 0
DWIDTH 8 0
BBX 7 7 0 0
BITMAP
44
AA
7C
28
7C
AA
44
ENDCHAR
STARTCHAR U+0091
ENCODING 145
SWIDTH 888 0
DWIDTH 8 0
BBX 3 3 3 3
BITMAP
60
C0
C0
ENDCHAR
STARTCHAR U+0092
ENCODING 146
SWIDTH 888 0
DWIDTH 8 0
BBX 3 3 2 3
BITMAP
60
60
C0
ENDCHAR
STARTCHAR U+0093
ENCODING 147
SWIDTH 888 0
DWIDTH 8 0
BBX 6 3 1 3
BITMAP
6C
D8
D8
ENDCHAR
STARTCHAR U+0094
ENCODING 148
SWIDTH 888 0
DWIDTH 8 0
BBX 6 3 1 3
BITMAP
6C
6C
D8
ENDCHAR
STARTCHAR U+0095
ENCODING 149
SWIDTH 888 0
DWIDTH 8 0
BBX 4 4 2 1
BITMAP
60
F0
F0
60
ENDCHAR
STARTCHAR U+0096
ENCODING 150
SWIDTH 888 0
DWIDTH 8 0
BBX 4 1 2 2
BITMAP
F0
ENDCHAR
STARTCHAR U+0097
ENCODING 151
SWIDTH 888 0
DWIDTH 8 0
BBX 8 1 0 2
BITMAP
FF
ENDCHAR
STARTCHAR U+0098
ENCODING 152
SWIDTH 888 0
DWIDTH 8 0
BBX 6 2 1 5
BITMAP
74
B8
ENDCHAR
STARTCHAR U+0099
ENCODING 153
SWIDTH 888 0
DWIDTH 8 0
BBX 8 4 0 2
BITMAP
F1
5B
55
51
ENDCHAR
STARTCHAR U+009A
ENCODING 154
SWIDTH 888 0
DWIDTH 8 0
BBX 6 7 1 0
BITMAP
CC
78
7C
C0
78
0C
F8
ENDCHAR
STARTCHAR U+009B
ENCODING 155
SWIDTH 888 0
DWIDTH 8 0
BBX 4 5 2 0
BITMAP
C0
60
30
60
C0
ENDCHAR
STARTCHAR U+009C
ENCODING 156
SWIDTH 888 0
DWIDTH 8 0
BBX 8 5 0 0
BITMAP
7E
DB
DF
D8
7E
ENDCHAR
STARTCHAR U+009D
ENCODING 157
SWIDTH 888 0
DWIDTH 8 0
BBX 6 6 1 0
BITMAP
F0
30
38
70
30
1C
ENDCHAR
STARTCHAR U+009E
ENCODING 158
SWIDTH 888 0
DWIDTH 8 0
BBX 6 7 1 0
BITMAP
CC
78
FC
18
30
60
FC
ENDCHAR
STARTCHAR U+009F
ENCODING 159
SWIDTH 888 0
DWIDTH 8 0
BBX 6 7 1 0
BITMAP
CC
00
CC
CC
78
30
30
ENDCHAR
STARTCHAR U+00A0
ENCODING 160
SWIDTH 888 0
DWIDTH 8 0
BBX 0 0 0 0
BITMAP
ENDCHAR
STARTCHAR U+00A1
ENCODING 161
SWIDTH 888 0
DWIDTH 8 0
BBX 2 6 3 -1
BITMAP
C0
00
C0
C0
C0
C0
ENDCHAR
STARTCHAR U+00A2
ENCODING 162
SWIDTH 888 0
DWIDTH 8 0
BBX 7 7 0 -1
BITMAP
10
7C
D6
D0
D6
7C
10
ENDCHAR
STARTCHAR U+00A3
ENCODING 163
SWIDTH 888 0
DWIDTH 8 0
BBX 6 6 1 0
BITMAP
38
60
F0
60
6C
F8
ENDCHAR
STARTCHAR U+00A4
ENCODING 164
SWIDTH 888 0
DWIDTH 8 0
BBX 6 5 1 0
BITMAP
CC
78
CC
78
CC
ENDCHAR
STARTCHAR U+00A5
ENCODING 165
SWIDTH 888 0
DWIDTH 8 0
BBX 6 6 1 0
BITMAP
CC
CC
78
30
FC
30
ENDCHAR
STARTCHAR U+00A6
ENCODING 166
SWIDTH 888 0
DWIDTH 8 0
BBX 2 6 3 0
BITMAP
C0
C0
00
00
C0
C0
ENDCHAR
STARTCHAR U+00A7
ENCODING 167
SWIDTH 888 0
DWIDTH 8 0
BBX 6 7 1 -1
BITMAP
7C
C0
78
CC
78
0C
F8
ENDCHAR
STARTCHAR U+00A8
ENCODING 168
SWIDTH 888 0
DWIDTH 8 0
BBX 6 1 1 6
BITMAP
CC
ENDCHAR
STARTCHAR U+00A9
ENCODING 169
SWIDTH 888 0
DWIDTH 8 0
BBX 7 7 0 -1
BITMAP
38
44
9A
A2
9A
44
38
ENDCHAR
STARTCHAR U+00AA
ENCODING 170
SWIDTH 888 0
DWIDTH 8 0
BBX 6 4 1 2
BITMAP
7C
CC
DC
6C
ENDCHAR
STARTCHAR U+00AB
ENCODING 171
SWIDTH 888 0
DWIDTH 8 0
BBX 7 5 0 0
BITMAP
36
6C
D8
6C
36
ENDCHAR
STARTCHAR U+00AC
ENCODING 172
SWIDTH 888 0
DWIDTH 8 0
BBX 6 3 1 1
BITMAP
FC
0C
0C
ENDCHAR
STARTCHAR U+00AD
ENCODING 173
SWIDTH 888 0
DWIDTH 8 0
BBX 6 1 1 2
BITMAP
FC
ENDCHAR
STARTCHAR U+00AE
ENCODING 174
SWIDTH 888 0
DWIDTH 8 0
BBX 7 7 0 -1
BITMAP
38
44
BA
B2
AA
44
38
ENDCHAR
STARTCHAR U+00AF
ENCODING 175
SWIDTH 888 0
DWIDTH 8 0
BBX 6 1 1 6
BITMAP
FC
ENDCHAR
STARTCHAR U+00B0
ENCODING 176
SWIDTH 888 0
DWIDTH 8 0
BBX 6 3 1 3
BITMAP
78
CC
78
ENDCHAR
STARTCHAR U+00B1
ENCODING 177
SWIDTH 888 0
DWIDTH 8 0
BBX 6 6 1 0
BITMAP
30
30
FC
30
30
FC
ENDCHAR
STARTCHAR U+00B2
ENCODING 178
SWIDTH 888 0
DWIDTH 8 0
BBX 6 5 1 2
BITMAP
F8
0C
78
C0
FC
ENDCHAR
STARTCHAR U+00B3
ENCODING 179
SWIDTH 888 0
DWIDTH 8 0
BBX 6 5 1 2
BITMAP
F8
0C
78
0C
F8
ENDCHAR
STARTCHAR U+00B4
ENCODING 180
SWIDTH 888 0
DWIDTH 8 0
BBX 4 3 2 3
BITMAP
30
60
C0
ENDCHAR
STARTCHAR U+00B5
ENCODING 181
SWIDTH 888 0
DWIDTH 8 0
BBX 6 6 1 -1
BITMAP
CC
CC
CC
DC
EC
C0
ENDCHAR
STARTCHAR U+00B6
ENCODING 182
SWIDTH 888 0
DWIDTH 8 0
BBX 6 6 1 0
BITMAP
7C
F4
F4
74
14
14
ENDCHAR
STARTCHAR U+00B7
ENCODING 183
SWIDTH 888 0
DWIDTH 8 0
BBX 2 2 3 2
BITMAP
C0
C0
ENDCHAR
STARTCHAR U+00B8
ENCODING 184
SWIDTH 888 0
DWIDTH 8 0
BBX 2 1 3 -1
BITMAP
C0
ENDCHAR
STARTCHAR U+00B9
ENCODING 185
SWIDTH 888 0
DWIDTH 8 0
BBX 6 5 1 2
BITMAP
30
F0
30
30
FC
ENDCHAR
STARTCHAR U+00BA
ENCODING 186
SWIDTH 888 0
DWIDTH 8 0
BBX 6 4 1 2
BITMAP
78
CC
CC
78
ENDCHAR
STARTCHAR U+00BB
ENCODING 187
SWIDTH 888 0
DWIDTH 8 0
BBX 7 5 0 0
BITMAP
D8
6C
36
6C
D8
ENDCHAR
STARTCHAR U+00BC
ENCODING 188
SWIDTH 888 0
DWIDTH 8 0
BBX 7 8 0 -1
BITMAP
E0
66
6C
F8
36
6E
DE
06
ENDCHAR
STARTCHAR U+00BD
ENCODING 189
SWIDTH 888 0
DWIDTH 8 0
BBX 7 8 0 -1
BITMAP
E0
66
6C
F8
3C
66
CC
1E
ENDCHAR
STARTCHAR U+00BE
ENCODING 190
SWIDTH 888 0
DWIDTH 8 0
BBX 7 8 0 -1
BITMAP
F0
66
3C
F8
36
6E
DE
06
ENDCHAR
STARTCHAR U+00BF
ENCODING 191
SWIDTH 888 0
DWIDTH 8 0
BBX 6 6 1 -1
BITMAP
30
00
30
60
CC
78
ENDCHAR
STARTCHAR U+00C0
ENCODING 192
SWIDTH 888 0
DWIDTH 8 0
BBX 6 7 1 0
BITMAP
60
30
78
CC
FC
CC
CC
ENDCHAR
STARTCHAR U+00C1
ENCODING 193
SWIDTH 888 0
DWIDTH 8 0
BBX 6 7 1 0
BITMAP
18
30
78
CC
FC
CC
CC
ENDCHAR
STARTCHAR U+00C2
ENCODING 194
SWIDTH 888 0
DWIDTH 8 0
BBX 6 7 1 0
BITMAP
78
CC
78
CC
FC
CC
CC
ENDCHAR
STARTCHAR U+00C3
ENCODING 195
SWIDTH 888 0
DWIDTH 8 0
BBX 6 7 1 0
BITMAP
74
B8
78
CC
FC
CC
CC
ENDCHAR
STARTCHAR U+00C4
ENCODING 196
SWIDTH 888 0
DWIDTH 8 0
BBX 6 7 1 0
BITMAP
CC
00
78
CC
FC
CC
CC
ENDCHAR
STARTCHAR U+00C5
ENCODING 197
SWIDTH 888 0
DWIDTH 8 0
BBX 6 7 1 0
BITMAP
78
CC
78
CC
FC
CC
CC
ENDCHAR
STARTCHAR U+00C6
ENCODING 198
SWIDTH 888 0
DWIDTH 8 0
BBX 6 6 1 0
BITMAP
7C
D8
FC
D8
D8
DC
ENDCHAR
STARTCHAR U+00C7
ENCODING 199
SWIDTH 888 0
DWIDTH 8 0
BBX 6 7 1 -1
BITMAP
78
CC
C0
C0
CC
78
30
ENDCHAR
STARTCHAR U+00C8
ENCODING 200
SWIDTH 888 0
DWIDTH 8 0
BBX 6 7 1 0
BITMAP
60
30
FC
C0
F8
C0
FC
ENDCHAR
STARTCHAR U+00C9
ENCODING 201
SWIDTH 888 0
DWIDTH 8 0
BBX 6 7 1 0
BITMAP
18
30
FC
C0
F8
C0
FC
ENDCHAR
STARTCHAR U+00CA
ENCODING 202
SWIDTH 888 0
DWIDTH 8 0
BBX 6 7 1 0
BITMAP
78
CC
FC
C0
F8
C0
FC
ENDCHAR
STARTCHAR U+00CB
ENCODING 203
SWIDTH 888 0
DWIDTH 8 0
BBX 6 7 1 0
BITMAP
CC
00
FC
C0
F8
C0
FC
ENDCHAR
STARTCHAR U+00CC
ENCODING 204
SWIDTH 888 0
DWIDTH 8 0
BBX 6 7 1 0
BITMAP
60
30
FC
30
30
30
FC
ENDCHAR
STARTCHAR U+00CD
ENCODING 205
SWIDTH 888 0
DWIDTH 8 0
BBX 6 7 1 0
BITMAP
18
30
FC
30
30
30
FC
ENDCHAR
STARTCHAR U+00CE
ENCODING 206
SWIDTH 888 0
DWIDTH 8 0
BBX 6 7 1 0
BITMAP
78
CC
FC
30
30
30
FC
ENDCHAR
STARTCHAR U+00CF
ENCODING 207
SWIDTH 888 0
DWIDTH 8 0
BBX 6 7 1 0
BITMAP
CC
00
FC
30
30
30
FC
ENDCHAR
STARTCHAR U+00D0
ENCODING 208
SWIDTH 888 0
DWIDTH 8 0
BBX 7 6 0 0
BITMAP
7C
66
F6
66
66
7C
ENDCHAR
STARTCHAR U+00D1
ENCODING 209
SWIDTH 888 0
DWIDTH 8 0
BBX 6 7 1 0
BITMAP
74
B8
CC
EC
FC
DC
CC
ENDCHAR
STARTCHAR U+00D2
ENCODING 210
SWIDTH 888 0
DWIDTH 8 0
BBX 6 7 1 0
BITMAP
60
30
78
CC
CC
CC
78
ENDCHAR
STARTCHAR U+00D3
ENCODING 211
SWIDTH 888 0
DWIDTH 8 0
BBX 6 7 1 0
BITMAP
18
30
78
CC
CC
CC
78
ENDCHAR
STARTCHAR U+00D4
ENCODING 212
SWIDTH 888 0
DWIDTH 8 0
BBX 6 7 1 0
BITMAP
78
CC
78
CC
CC
CC
78
ENDCHAR
STARTCHAR U+00D5
ENCODING 213
SWIDTH 888 0
DWIDTH 8 0
BBX 6 7 1 0
BITMAP
74
B8
78
CC
CC
CC
78
ENDCHAR
STARTCHAR U+00D6
ENCODING 214
SWIDTH 888 0
DWIDTH 8 0
BBX 6 7 1 0
BITMAP
CC
00
78
CC
CC
CC
78
ENDCHAR
STARTCHAR U+00D7
ENCODING 215
SWIDTH 888 0
DWIDTH 8 0
BBX 6 5 1 0
BITMAP
CC
78
30
78
CC
ENDCHAR
STARTCHAR U+00D8
ENCODING 216
SWIDTH 888 0
DWIDTH 8 0
BBX 6 6 1 0
BITMAP
7C
CC
DC
EC
CC
F8
ENDCHAR
STARTCHAR U+00D9
ENCODING 217
SWIDTH 888 0
DWIDTH 8 0
BBX 6 7 1 0
BITMAP
60
30
CC
CC
CC
CC
78
ENDCHAR
STARTCHAR U+00DA
ENCODING 218
SWIDTH 888 0
DWIDTH 8 0
BBX 6 7 1 0
BITMAP
18
30
CC
CC
CC
CC
78
ENDCHAR
STARTCHAR U+00DB
ENCODING 219
SWIDTH 888 0
DWIDTH 8 0
BBX 6 7 1 0
BITMAP
78
CC
00
CC
CC
CC
78
ENDCHAR
STARTCHAR U+00DC
ENCODING 220
SWIDTH 888 0
DWIDTH 8 0
BBX 6 7 1 0
BITMAP
CC
00
CC
CC
CC
CC
78
ENDCHAR
STARTCHAR U+00DD
ENCODING 221
SWIDTH 888 0
DWIDTH 8 0
BBX 6 7 1 0
BITMAP
18
30
CC
CC
78
30
30
ENDCHAR
STARTCHAR U+00DE
ENCODING 222
SWIDTH 888 0
DWIDTH 8 0
BBX 6 6 1 0
BITMAP
C0
F8
CC
CC
F8
C0
ENDCHAR
STARTCHAR U+00DF
ENCODING 223
SWIDTH 888 0
DWIDTH 8 0
BBX 6 6 1 0
BITMAP
78
CC
D8
CC
CC
D8
ENDCHAR
STARTCHAR U+00E0
ENCODING 224
SWIDTH 888 0
DWIDTH 8 0
BBX 6 7 1 0
BITMAP
60
30
78
0C
7C
CC
7C
ENDCHAR
STARTCHAR U+00E1
ENCODING 225
SWIDTH 888 0
DWIDTH 8 0
BBX 6 7 1 0
BITMAP
18
30
78
0C
7C
CC
7C
ENDCHAR
STARTCHAR U+00E2
ENCODING 226
SWIDTH 888 0
DWIDTH 8 0
BBX 6 7 1 0
BITMAP
78
CC
78
0C
7C
CC
7C
ENDCHAR
STARTCHAR U+00E3
ENCODING 227
SWIDTH 888 0
DWIDTH 8 0
BBX 6 7 1 0
BITMAP
74
B8
78
0C
7C
CC
7C
ENDCHAR
STARTCHAR U+00E4
ENCODING 228
SWIDTH 888 0
DWIDTH 8 0
BBX 6 7 1 0
BITMAP
CC
00
78
0C
7C
CC
7C
ENDCHAR
STARTCHAR U+00E5
ENCODING 229
SWIDTH 888 0
DWIDTH 8 0
BBX 6 7 1 0
BITMAP
78
CC
78
0C
7C
CC
7C
ENDCHAR
STARTCHAR U+00E6
ENCODING 230
SWIDTH 888 0
DWIDTH 8 0
BBX 8 5 0 0
BITMAP
7E
1B
7F
D8
7E
ENDCHAR
STARTCHAR U+00E7
ENCODING 231
SWIDTH 888 0
DWIDTH 8 0
BBX 6 6 1 -1
BITMAP
78
CC
C0
CC
78
30
ENDCHAR
STARTCHAR U+00E8
ENCODING 232
SWIDTH 888 0
DWIDTH 8 0
BBX 6 7 1 0
BITMAP
60
30
78
CC
FC
C0
78
ENDCHAR
STARTCHAR U+00E9
ENCODING 233
SWIDTH 888 0
DWIDTH 8 0
BBX 6 7 1 0
BITMAP
18
30
78
CC
FC
C0
78
ENDCHAR
STARTCHAR U+00EA
ENCODING 234
SWIDTH 888 0
DWIDTH 8 0
BBX 6 7 1 0
BITMAP
78
CC
78
CC
FC
C0
78
ENDCHAR
STARTCHAR U+00EB
ENCODING 235
SWIDTH 888 0
DWIDTH 8 0
BBX 6 7 1 0
BITMAP
CC
00
78
CC
FC
C0
78
ENDCHAR
STARTCHAR U+00EC
ENCODING 236
SWIDTH 888 0
DWIDTH 8 0
BBX 6 7 1 0
BITMAP
18
30
F0
30
30
30
1C
ENDCHAR
STARTCHAR U+00ED
ENCODING 237
SWIDTH 888 0
DWIDTH 8 0
BBX 6 7 1 0
BITMAP
60
30
F0
30
30
30
1C
ENDCHAR
STARTCHAR U+00EE
ENCODING 238
SWIDTH 888 0
DWIDTH 8 0
BBX 6 7 1 0
BITMAP
78
CC
F0
30
30
30
1C
ENDCHAR
STARTCHAR U+00EF
ENCODING 239
SWIDTH 888 0
DWIDTH 8 0
BBX 6 7 1 0
BITMAP
CC
00
F0
30
30
30
1C
ENDCHAR
STARTCHAR U+00F0
ENCODING 240
SWIDTH 888 0
DWIDTH 8 0
BBX 6 6 1 0
BITMAP
7C
18
7C
CC
CC
78
ENDCHAR
STARTCHAR U+00F1
ENCODING 241
SWIDTH 888 0
DWIDTH 8 0
BBX 6 7 1 0
BITMAP
74
B8
D8
EC
CC
CC
CC
ENDCHAR
STARTCHAR U+00F2
ENCODING 242
SWIDTH 888 0
DWIDTH 8 0
BBX 6 7 1 0
BITMAP
60
30
78
CC
CC
CC
78
ENDCHAR
STARTCHAR U+00F3
ENCODING 243
SWIDTH 888 0
DWIDTH 8 0
BBX 6 7 1 0
BITMAP
18
30
78
CC
CC
CC
78
ENDCHAR
STARTCHAR U+00F4
ENCODING 244
SWIDTH 888 0
DWIDTH 8 0
BBX 6 7 1 0
BITMAP
78
CC
78
CC
CC
CC
78
ENDCHAR
STARTCHAR U+00F5
ENCODING 245
SWIDTH 888 0
DWIDTH 8 0
BBX 6 7 1 0
BITMAP
74
B8
78
CC
CC
CC
78
ENDCHAR
STARTCHAR U+00F6
ENCODING 246
SWIDTH 888 0
DWIDTH 8 0
BBX 6 7 1 0
BITMAP
CC
00
78
CC
CC
CC
78
ENDCHAR
STARTCHAR U+00F7
ENCODING 247
SWIDTH 888 0
DWIDTH 8 0
BBX 6 5 1 0
BITMAP
30
00
FC
00
30
ENDCHAR
STARTCHAR U+00F8
ENCODING 248
SWIDTH 888 0
DWIDTH 8 0
BBX 6 5 1 0
BITMAP
7C
DC
FC
EC
F8
ENDCHAR
STARTCHAR U+00F9
ENCODING 249
SWIDTH 888 0
DWIDTH 8 0
BBX 6 7 1 0
BITMAP
60
30
CC
CC
CC
DC
6C
ENDCHAR
STARTCHAR U+00FA
ENCODING 250
SWIDTH 888 0
DWIDTH 8 0
BBX 6 7 1 0
BITMAP
18
30
CC
CC
CC
DC
6C
ENDCHAR
STARTCHAR U+00FB
ENCODING 251
SWIDTH 888 0
DWIDTH 8 0
BBX 6 7 1 0
BITMAP
78
CC
00
CC
CC
DC
6C
ENDCHAR
STARTCHAR U+00FC
ENCODING 252
SWIDTH 888 0
DWIDTH 8 0
BBX 6 7 1 0
BITMAP
CC
00
CC
CC
CC
DC
6C
ENDCHAR
STARTCHAR U+00FD
ENCODING 253
SWIDTH 888 0
DWIDTH 8 0
BBX 6 8 1 -1
BITMAP
18
30
CC
CC
DC
6C
0C
78
ENDCHAR
STARTCHAR U+00FE
ENCODING 254
SWIDTH 888 0
DWIDTH 8 0
BBX 6 7 1 -1
BITMAP
C0
D8
EC
CC
CC
F8
C0
ENDCHAR
STARTCHAR U+00FF
ENCODING 255
SWIDTH 888 0
DWIDTH 8 0
BBX 6 8 1 -1
BITMAP
CC
00
CC
CC
DC
6C
0C
78
ENDCHAR
STARTCHAR U+0131
ENCODING 305
SWIDTH 888 0
DWIDTH 8 0
BBX 6 5 1 0
BITMAP
F0
30
30
30
1C
ENDCHAR
STARTCHAR U+0141
ENCODING 321
SWIDTH 888 0
DWIDTH 8 0
BBX 7 6 0 0
BITMAP
60
60
70
E0
60
7E
ENDCHAR
STARTCHAR U+0142
ENCODING 322
SWIDTH 888 0
DWIDTH 8 0
BBX 6 6 1 0
BITMAP
F0
30
38
70
30
1C
ENDCHAR
STARTCHAR U+0152
ENCODING 338
SWIDTH 888 0
DWIDTH 8 0
BBX 6 6 1 0
BITMAP
7C
D8
DC
D8
D8
7C
ENDCHAR
STARTCHAR U+0153
ENCODING 339
SWIDTH 888 0
DWIDTH 8 0
BBX 8 5 0 0
BITMAP
7E
DB
DF
D8
7E
ENDCHAR
STARTCHAR U+0160
ENCODING 352
SWIDTH 888 0
DWIDTH 8 0
BBX 6 7 1 0
BITMAP
CC
78
7C
C0
78
0C
F8
ENDCHAR
STARTCHAR U+0161
ENCODING 353
SWIDTH 888 0
DWIDTH 8 0
BBX 6 7 1 0
BITMAP
CC
78
7C
C0
78
0C
F8
ENDCHAR
STARTCHAR U+0178
ENCODING 376
SWIDTH 888 0
DWIDTH 8 0
BBX 6 7 1 0
BITMAP
CC
00
CC
CC
78
30
30
ENDCHAR
STARTCHAR U+017D
ENCODING 381
SWIDTH 888 0
DWIDTH 8 0
BBX 6 7 1 0
BITMAP
CC
78
FC
18
30
60
FC
ENDCHAR
STARTCHAR U+017E
ENCODING 382
SWIDTH 888 0
DWIDTH 8 0
BBX 6 7 1 0
BITMAP
CC
78
FC
18
30
60
FC
ENDCHAR
STARTCHAR U+0192
ENCODING 402
SWIDTH 888 0
DWIDTH 8 0
BBX 8 8 0 -1
BITMAP
0F
18
7E
18
18
18
18
F0
ENDCHAR
STARTCHAR U+01DD
ENCODING 477
SWIDTH 888 0
DWIDTH 8 0
BBX 6 5 1 0
BITMAP
78
0C
FC
CC
78
ENDCHAR
STARTCHAR U+0237
ENCODING 567
SWIDTH 888 0
DWIDTH 8 0
BBX 5 6 1 -1
BITMAP
78
18
18
18
18
F0
ENDCHAR
STARTCHAR U+02C6
ENCODING 710
SWIDTH 888 0
DWIDTH 8 0
BBX 6 2 1 5
BITMAP
78
CC
ENDCHAR
STARTCHAR U+02C7
ENCODING 711
SWIDTH 888 0
DWIDTH 8 0
BBX 6 2 1 5
BITMAP
CC
78
ENDCHAR
STARTCHAR U+02C9
ENCODING 713
SWIDTH 888 0
DWIDTH 8 0
BBX 6 1 1 6
BITMAP
FC
ENDCHAR
STARTCHAR U+02CA
ENCODING 714
SWIDTH 888 0
DWIDTH 8 0
BBX 3 2 3 5
BITMAP
60
C0
ENDCHAR
STARTCHAR U+02CB
ENCODING 715
SWIDTH 888 0
DWIDTH 8 0
BBX 3 2 2 5
BITMAP
C0
60
ENDCHAR
STARTCHAR U+02D8
ENCODING 728
SWIDTH 888 0
DWIDTH 8 0
BBX 6 2 1 5
BITMAP
CC
78
ENDCHAR
STARTCHAR U+02D9
ENCODING 729
SWIDTH 888 0
DWIDTH 8 0
BBX 2 1 3 6
BITMAP
C0
ENDCHAR
STARTCHAR U+02DA
ENCODING 730
SWIDTH 888 0
DWIDTH 8 0
BBX 6 3 1 4
BITMAP
78
CC
78
ENDCHAR
STARTCHAR U+02DB
ENCODING 731
SWIDTH 888 0
DWIDTH 8 0
BBX 2 1 3 -1
BITMAP
C0
ENDCHAR
STARTCHAR U+02DC
ENCODING 732
SWIDTH 888 0
DWIDTH 8 0
BBX 6 2 1 5
BITMAP
74
B8
ENDCHAR
STARTCHAR U+02DD
ENCODING 733
SWIDTH 888 0
DWIDTH 8 0
BBX 6 2 1 5
BITMAP
6C
D8
ENDCHAR
STARTCHAR U+0394
ENCODING 916
SWIDTH 888 0
DWIDTH 8 0
BBX 6 6 1 0
BITMAP
30
30
78
78
CC
FC
ENDCHAR
STARTCHAR U+03A9
ENCODING 937
SWIDTH 888 0
DWIDTH 8 0
BBX 6 6 1 0
BITMAP
78
CC
CC
CC
48
CC
ENDCHAR
STARTCHAR U+03BC
ENCODING 956
SWIDTH 888 0
DWIDTH 8 0
BBX 6 6 1 -1
BITMAP
CC
CC
CC
DC
EC
C0
ENDCHAR
STARTCHAR U+03C0
ENCODING 960
SWIDTH 888 0
DWIDTH 8 0
BBX 6 5 1 0
BITMAP
FC
CC
CC
CC
CC
ENDCHAR
STARTCHAR U+1E9E
ENCODING 7838
SWIDTH 888 0
DWIDTH 8 0
BBX 6 6 1 0
BITMAP
7C
CC
D8
CC
CC
D8
ENDCHAR
STARTCHAR U+2010
ENCODING 8208
SWIDTH 888 0
DWIDTH 8 0
BBX 6 1 1 2
BITMAP
FC
ENDCHAR
STARTCHAR U+2011
ENCODING 8209
SWIDTH 888 0
DWIDTH 8 0
BBX 6 1 1 2
BITMAP
FC
ENDCHAR
STARTCHAR U+2012
ENCODING 8210
SWIDTH 888 0
DWIDTH 8 0
BBX 6 1 1 2
BITMAP
FC
ENDCHAR
STARTCHAR U+2013
ENCODING 8211
SWIDTH 888 0
DWIDTH 8 0
BBX 4 1 2 2
BITMAP
F0
ENDCHAR
STARTCHAR U+2014
ENCODING 8212
SWIDTH 888 0
DWIDTH 8 0
BBX 8 1 0 2
BITMAP
FF
ENDCHAR
STARTCHAR U+2018
ENCODING 8216
SWIDTH 888 0
DWIDTH 8 0
BBX 3 3 3 3
BITMAP
60
C0
C0
ENDCHAR
STARTCHAR U+2019
ENCODING 8217
SWIDTH 888 0
DWIDTH 8 0
BBX 3 3 2 3
BITMAP
60
60
C0
ENDCHAR
STARTCHAR U+201A
ENCODING 8218
SWIDTH 888 0
DWIDTH 8 0
BBX 3 3 2 -1
BITMAP
60
60
C0
ENDCHAR
STARTCHAR U+201B
ENCODING 8219
SWIDTH 888 0
DWIDTH 8 0
BBX 3 3 3 3
BITMAP
C0
C0
60
ENDCHAR
STARTCHAR U+201C
ENCODING 8220
SWIDTH 888 0
DWIDTH 8 0
BBX 6 3 1 3
BITMAP
6C
D8
D8
ENDCHAR
STARTCHAR U+201D
ENCODING 8221
SWIDTH 888 0
DWIDTH 8 0
BBX 6 3 1 3
BITMAP
6C
6C
D8
ENDCHAR
STARTCHAR U+201E
ENCODING 8222
SWIDTH 888 0
DWIDTH 8 0
BBX 6 3 1 -1
BITMAP
6C
6C
D8
ENDCHAR
STARTCHAR U+201F
ENCODING 8223
SWIDTH 888 0
DWIDTH 8 0
BBX 6 3 1 3
BITMAP
D8
D8
6C
ENDCHAR
STARTCHAR U+2020
ENCODING 8224
SWIDTH 888 0
DWIDTH 8 0
BBX 6 5 1 1
BITMAP
30
FC
30
30
30
ENDCHAR
STARTCHAR U+2021
ENCODING 8225
SWIDTH 888 0
DWIDTH 8 0
BBX 6 5 1 1
BITMAP
30
FC
30
FC
30
ENDCHAR
STARTCHAR U+2022
ENCODING 8226
SWIDTH 888 0
DWIDTH 8 0
BBX 4 4 2 1
BITMAP
60
F0
F0
60
ENDCHAR
STARTCHAR U+2024
ENCODING 8228
SWIDTH 888 0
DWIDTH 8 0
BBX 2 2 3 0
BITMAP
C0
C0
ENDCHAR
STARTCHAR U+2025
ENCODING 8229
SWIDTH 888 0
DWIDTH 8 0
BBX 6 2 1 0
BITMAP
CC
CC
ENDCHAR
STARTCHAR U+2026
ENCODING 8230
SWIDTH 888 0
DWIDTH 8 0
BBX 8 2 0 0
BITMAP
DB
DB
ENDCHAR
STARTCHAR U+2027
ENCODING 8231
SWIDTH 888 0
DWIDTH 8 0
BBX 2 1 3 2
BITMAP
C0
ENDCHAR
STARTCHAR U+2030
ENCODING 8240
SWIDTH 888 0
DWIDTH 8 0
BBX 8 6 0 0
BITMAP
76
DC
78
3E
6B
FE
ENDCHAR
STARTCHAR U+2031
ENCODING 8241
SWIDTH 888 0
DWIDTH 8 0
BBX 8 6 0 0
BITMAP
76
DC
78
7F
55
FF
ENDCHAR
STARTCHAR U+2039
ENCODING 8249
SWIDTH 888 0
DWIDTH 8 0
BBX 4 5 2 0
BITMAP
30
60
C0
60
30
ENDCHAR
STARTCHAR U+203A
ENCODING 8250
SWIDTH 888 0
DWIDTH 8 0
BBX 4 5 2 0
BITMAP
C0
60
30
60
C0
ENDCHAR
STARTCHAR U+203C
ENCODING 8252
SWIDTH 888 0
DWIDTH 8 0
BBX 6 6 1 0
BITMAP
CC
CC
CC
CC
00
CC
ENDCHAR
STARTCHAR U+203D
ENCODING 8253
SWIDTH 888 0
DWIDTH 8 0
BBX 6 6 1 0
BITMAP
78
FC
38
30
00
30
ENDCHAR
STARTCHAR U+2044
ENCODING 8260
SWIDTH 888 0
DWIDTH 8 0
BBX 9 8 -1 -1
BITMAP
0180
0300
0600
0C00
1800
3000
6000
C000
ENDCHAR
STARTCHAR U+20AC
ENCODING 8364
SWIDTH 888 0
DWIDTH 8 0
BBX 6 7 1 0
BITMAP
38
6C
F0
60
F0
6C
38
ENDCHAR
STARTCHAR U+2116
ENCODING 8470
SWIDTH 888 0
DWIDTH 8 0
BBX 8 6 0 0
BITMAP
9E
DB
FB
FE
D8
CB
ENDCHAR
STARTCHAR U+2117
ENCODING 8471
SWIDTH 888 0
DWIDTH 8 0
BBX 7 7 0 -1
BITMAP
38
44
BA
BA
A2
44
38
ENDCHAR
STARTCHAR U+2120
ENCODING 8480
SWIDTH 888 0
DWIDTH 8 0
BBX 8 4 0 2
BITMAP
51
9B
55
91
ENDCHAR
STARTCHAR U+2122
ENCODING 8482
SWIDTH 888 0
DWIDTH 8 0
BBX 8 4 0 2
BITMAP
F1
5B
55
51
ENDCHAR
STARTCHAR U+2126
ENCODING 8486
SWIDTH 888 0
DWIDTH 8 0
BBX 6 6 1 0
BITMAP
78
CC
CC
CC
48
CC
ENDCHAR
STARTCHAR U+2127
ENCODING 8487
SWIDTH 888 0
DWIDTH 8 0
BBX 6 6 1 0
BITMAP
CC
48
CC
CC
CC
78
ENDCHAR
STARTCHAR U+2190
ENCODING 8592
SWIDTH 888 0
DWIDTH 8 0
BBX 6 6 1 0
BITMAP
20
60
FC
FC
60
20
ENDCHAR
STARTCHAR U+2191
ENCODING 8593
SWIDTH 888 0
DWIDTH 8 0
BBX 6 6 1 0
BITMAP
30
78
FC
30
30
30
ENDCHAR
STARTCHAR U+2192
ENCODING 8594
SWIDTH 888 0
DWIDTH 8 0
BBX 6 6 1 0
BITMAP
10
18
FC
FC
18
10
ENDCHAR
STARTCHAR U+2193
ENCODING 8595
SWIDTH 888 0
DWIDTH 8 0
BBX 6 6 1 0
BITMAP
30
30
30
FC
78
30
ENDCHAR
STARTCHAR U+2194
ENCODING 8596
SWIDTH 888 0
DWIDTH 8 0
BBX 7 6 0 0
BITMAP
28
6C
FE
FE
6C
28
ENDCHAR
STARTCHAR U+2195
ENCODING 8597
SWIDTH 888 0
DWIDTH 8 0
BBX 6 7 1 0
BITMAP
30
78
FC
30
FC
78
30
ENDCHAR
STARTCHAR U+2196
ENCODING 8598
SWIDTH 888 0
DWIDTH 8 0
BBX 6 6 1 0
BITMAP
F0
E0
F0
B8
1C
08
ENDCHAR
STARTCHAR U+2197
ENCODING 8599
SWIDTH 888 0
DWIDTH 8 0
BBX 6 6 1 0
BITMAP
3C
1C
3C
74
E0
40
ENDCHAR
STARTCHAR U+2198
ENCODING 8600
SWIDTH 888 0
DWIDTH 8 0
BBX 6 6 1 0
BITMAP
40
E0
74
3C
1C
3C
ENDCHAR
STARTCHAR U+2199
ENCODING 8601
SWIDTH 888 0
DWIDTH 8 0
BBX 6 6 1 0
BITMAP
08
1C
B8
F0
E0
F0
ENDCHAR
STARTCHAR U+21A8
ENCODING 8616
SWIDTH 888 0
DWIDTH 8 0
BBX 6 8 1 -1
BITMAP
30
78
FC
30
FC
78
30
FC
ENDCHAR
STARTCHAR U+21A9
ENCODING 8617
SWIDTH 888 0
DWIDTH 8 0
BBX 6 6 1 0
BITMAP
0C
2C
6C
F8
60
20
ENDCHAR
STARTCHAR U+21AA
ENCODING 8618
SWIDTH 888 0
DWIDTH 8 0
BBX 6 6 1 0
BITMAP
C0
D0
D8
7C
18
10
ENDCHAR
STARTCHAR U+21B0
ENCODING 8624
SWIDTH 888 0
DWIDTH 8 0
BBX 6 6 1 0
BITMAP
20
60
FC
6C
2C
0C
ENDCHAR
STARTCHAR U+21B1
ENCODING 8625
SWIDTH 888 0
DWIDTH 8 0
BBX 6 6 1 0
BITMAP
10
18
FC
D8
D0
C0
ENDCHAR
STARTCHAR U+21B2
ENCODING 8626
SWIDTH 888 0
DWIDTH 8 0
BBX 6 6 1 0
BITMAP
0C
2C
6C
FC
60
20
ENDCHAR
STARTCHAR U+21B3
ENCODING 8627
SWIDTH 888 0
DWIDTH 8 0
BBX 6 6 1 0
BITMAP
C0
D0
D8
FC
18
10
ENDCHAR
STARTCHAR U+21B5
ENCODING 8629
SWIDTH 888 0
DWIDTH 8 0
BBX 6 5 1 0
BITMAP
2C
6C
FC
60
20
ENDCHAR
STARTCHAR U+21DE
ENCODING 8670
SWIDTH 888 0
DWIDTH 8 0
BBX 6 6 1 0
BITMAP
30
78
FC
30
FC
30
ENDCHAR
STARTCHAR U+21DF
ENCODING 8671
SWIDTH 888 0
DWIDTH 8 0
BBX 6 6 1 0
BITMAP
30
FC
30
FC
78
30
ENDCHAR
STARTCHAR U+21E4
ENCODING 8676
SWIDTH 888 0
DWIDTH 8 0
BBX 6 6 1 0
BITMAP
90
B0
FC
FC
B0
90
ENDCHAR
STARTCHAR U+21E5
ENCODING 8677
SWIDTH 888 0
DWIDTH 8 0
BBX 6 6 1 0
BITMAP
24
34
FC
FC
34
24
ENDCHAR
STARTCHAR U+21E6
ENCODING 8678
SWIDTH 888 0
DWIDTH 8 0
BBX 7 7 0 0
BITMAP
10
30
5E
82
5E
30
10
ENDCHAR
STARTCHAR U+21E7
ENCODING 8679
SWIDTH 888 0
DWIDTH 8 0
BBX 7 7 0 0
BITMAP
10
28
44
EE
28
28
38
ENDCHAR
STARTCHAR U+21E8
ENCODING 8680
SWIDTH 888 0
DWIDTH 8 0
BBX 7 7 0 0
BITMAP
10
18
F4
82
F4
18
10
ENDCHAR
STARTCHAR U+21E9
ENCODING 8681
SWIDTH 888 0
DWIDTH 8 0
BBX 7 7 0 0
BITMAP
38
28
28
EE
44
28
10
ENDCHAR
STARTCHAR U+21EA
ENCODING 8682
SWIDTH 888 0
DWIDTH 8 0
BBX 7 7 0 0
BITMAP
10
28
44
EE
38
28
38
ENDCHAR
STARTCHAR U+2202
ENCODING 8706
SWIDTH 888 0
DWIDTH 8 0
BBX 6 6 1 0
BITMAP
78
0C
7C
CC
CC
78
ENDCHAR
STARTCHAR U+2206
ENCODING 8710
SWIDTH 888 0
DWIDTH 8 0
BBX 6 6 1 0
BITMAP
30
30
78
78
CC
FC
ENDCHAR
STARTCHAR U+2207
ENCODING 8711
SWIDTH 888 0
DWIDTH 8 0
BBX 6 6 1 0
BITMAP
FC
CC
78
78
30
30
ENDCHAR
STARTCHAR U+220F
ENCODING 8719
SWIDTH 888 0
DWIDTH 8 0
BBX 6 8 1 -1
BITMAP
FC
CC
CC
CC
CC
CC
CC
CC
ENDCHAR
STARTCHAR U+2210
ENCODING 8720
SWIDTH 888 0
DWIDTH 8 0
BBX 6 8 1 -1
BITMAP
CC
CC
CC
CC
CC
CC
CC
FC
ENDCHAR
STARTCHAR U+2211
ENCODING 8721
SWIDTH 888 0
DWIDTH 8 0
BBX 6 8 1 -1
BITMAP
FC
C0
60
30
30
60
C0
FC
ENDCHAR
STARTCHAR U+2212
ENCODING 8722
SWIDTH 888 0
DWIDTH 8 0
BBX 6 1 1 2
BITMAP
FC
ENDCHAR
STARTCHAR U+221A
ENCODING 8730
SWIDTH 888 0
DWIDTH 8 0
BBX 8 8 0 -1
BITMAP
0F
0C
0C
0C
2C
7C
DC
0C
ENDCHAR
STARTCHAR U+221E
ENCODING 8734
SWIDTH 888 0
DWIDTH 8 0
BBX 8 3 0 1
BITMAP
76
DB
6E
ENDCHAR
STARTCHAR U+222B
ENCODING 8747
SWIDTH 888 0
DWIDTH 8 0
BBX 6 8 1 -1
BITMAP
1C
30
30
30
30
30
30
E0
ENDCHAR
STARTCHAR U+2248
ENCODING 8776
SWIDTH 888 0
DWIDTH 8 0
BBX 6 5 1 0
BITMAP
74
B8
00
74
B8
ENDCHAR
STARTCHAR U+2260
ENCODING 8800
SWIDTH 888 0
DWIDTH 8 0
BBX 6 5 1 0
BITMAP
18
FC
30
FC
60
ENDCHAR
STARTCHAR U+2264
ENCODING 8804
SWIDTH 888 0
DWIDTH 8 0
BBX 6 6 1 0
BITMAP
18
30
60
30
18
FC
ENDCHAR
STARTCHAR U+2265
ENCODING 8805
SWIDTH 888 0
DWIDTH 8 0
BBX 6 6 1 0
BITMAP
60
30
18
30
60
FC
ENDCHAR
STARTCHAR U+2303
ENCODING 8963
SWIDTH 888 0
DWIDTH 8 0
BBX 7 4 0 3
BITMAP
10
38
6C
C6
ENDCHAR
STARTCHAR U+2318
ENCODING 8984
SWIDTH 888 0
DWIDTH 8 0
BBX 7 7 0 0
BITMAP
44
AA
7C
28
7C
AA
44
ENDCHAR
STARTCHAR U+2324
ENCODING 8996
SWIDTH 888 0
DWIDTH 8 0
BBX 7 6 0 0
BITMAP
EE
C6
10
38
6C
C6
ENDCHAR
STARTCHAR U+2325
ENCODING 8997
SWIDTH 888 0
DWIDTH 8 0
BBX 7 7 0 0
BITMAP
EE
20
30
10
18
08
0E
ENDCHAR
STARTCHAR U+2326
ENCODING 8998
SWIDTH 888 0
DWIDTH 8 0
BBX 7 7 0 0
BITMAP
F0
88
D4
A2
D4
88
F0
ENDCHAR
STARTCHAR U+2327
ENCODING 8999
SWIDTH 888 0
DWIDTH 8 0
BBX 7 7 0 0
BITMAP
FE
82
AA
92
AA
82
FE
ENDCHAR
STARTCHAR U+232B
ENCODING 9003
SWIDTH 888 0
DWIDTH 8 0
BBX 7 7 0 0
BITMAP
1E
22
56
8A
56
22
1E
ENDCHAR
STARTCHAR U+2389
ENCODING 9097
SWIDTH 888 0
DWIDTH 8 0
BBX 7 7 0 0
BITMAP
38
44
82
EE
BA
54
38
ENDCHAR
STARTCHAR U+238A
ENCODING 9098
SWIDTH 888 0
DWIDTH 8 0
BBX 7 7 0 0
BITMAP
38
44
BA
AA
92
54
38
ENDCHAR
STARTCHAR U+238B
ENCODING 9099
SWIDTH 888 0
DWIDTH 8 0
BBX 7 7 0 0
BITMAP
E8
C4
A2
12
82
44
38
ENDCHAR
STARTCHAR U+23CF
ENCODING 9167
SWIDTH 888 0
DWIDTH 8 0
BBX 6 6 1 0
BITMAP
30
78
FC
00
FC
FC
ENDCHAR
STARTCHAR U+23E9
ENCODING 9193
SWIDTH 888 0
DWIDTH 8 0
BBX 6 6 1 0
BITMAP
90
D8
FC
FC
D8
90
ENDCHAR
STARTCHAR U+23EA
ENCODING 9194
SWIDTH 888 0
DWIDTH 8 0
BBX 6 6 1 0
BITMAP
24
6C
FC
FC
6C
24
ENDCHAR
STARTCHAR U+23EB
ENCODING 9195
SWIDTH 888 0
DWIDTH 8 0
BBX 6 6 1 0
BITMAP
30
78
FC
30
78
FC
ENDCHAR
STARTCHAR U+23EC
ENCODING 9196
SWIDTH 888 0
DWIDTH 8 0
BBX 6 6 1 0
BITMAP
FC
78
30
FC
78
30
ENDCHAR
STARTCHAR U+23ED
ENCODING 9197
SWIDTH 888 0
DWIDTH 8 0
BBX 7 6 0 0
BITMAP
92
DA
FE
FE
DA
92
ENDCHAR
STARTCHAR U+23EE
ENCODING 9198
SWIDTH 888 0
DWIDTH 8 0
BBX 7 6 0 0
BITMAP
92
B6
FE
FE
B6
92
ENDCHAR
STARTCHAR U+23EF
ENCODING 9199
SWIDTH 888 0
DWIDTH 8 0
BBX 7 6 0 0
BITMAP
8A
CA
EA
EA
CA
8A
ENDCHAR
STARTCHAR U+23F4
ENCODING 9204
SWIDTH 888 0
DWIDTH 8 0
BBX 3 6 2 0
BITMAP
20
60
E0
E0
60
20
ENDCHAR
STARTCHAR U+23F5
ENCODING 9205
SWIDTH 888 0
DWIDTH 8 0
BBX 3 6 3 0
BITMAP
80
C0
E0
E0
C0
80
ENDCHAR
STARTCHAR U+23F6
ENCODING 9206
SWIDTH 888 0
DWIDTH 8 0
BBX 6 3 1 2
BITMAP
30
78
FC
ENDCHAR
STARTCHAR U+23F7
ENCODING 9207
SWIDTH 888 0
DWIDTH 8 0
BBX 6 3 1 1
BITMAP
FC
78
30
ENDCHAR
STARTCHAR U+23F8
ENCODING 9208
SWIDTH 888 0
DWIDTH 8 0
BBX 6 6 1 0
BITMAP
CC
CC
CC
CC
CC
CC
ENDCHAR
STARTCHAR U+23F9
ENCODING 9209
SWIDTH 888 0
DWIDTH 8 0
BBX 6 6 1 0
BITMAP
FC
FC
FC
FC
FC
FC
ENDCHAR
STARTCHAR U+23FA
ENCODING 9210
SWIDTH 888 0
DWIDTH 8 0
BBX 6 6 1 0
BITMAP
78
FC
FC
FC
FC
78
ENDCHAR
STARTCHAR U+23FB
ENCODING 9211
SWIDTH 888 0
DWIDTH 8 0
BBX 7 7 0 0
BITMAP
10
54
92
92
82
44
38
ENDCHAR
STARTCHAR U+23FC
ENCODING 9212
SWIDTH 888 0
DWIDTH 8 0
BBX 7 7 0 0
BITMAP
38
44
92
92
92
44
38
ENDCHAR
STARTCHAR U+23FD
ENCODING 9213
SWIDTH 888 0
DWIDTH 8 0
BBX 1 7 3 0
BITMAP
80
80
80
80
80
80
80
ENDCHAR
STARTCHAR U+23FE
ENCODING 9214
SWIDTH 888 0
DWIDTH 8 0
BBX 7 7 0 0
BITMAP
30
50
A0
A6
9A
44
38
ENDCHAR
STARTCHAR U+2423
ENCODING 9251
SWIDTH 888 0
DWIDTH 8 0
BBX 6 3 1 0
BITMAP
84
FC
FC
ENDCHAR
STARTCHAR U+2427
ENCODING 9255
SWIDTH 888 0
DWIDTH 8 0
BBX 6 5 1 0
BITMAP
CC
30
CC
30
CC
ENDCHAR
STARTCHAR U+25A0
ENCODING 9632
SWIDTH 888 0
DWIDTH 8 0
BBX 6 6 1 0
BITMAP
FC
FC
FC
FC
FC
FC
ENDCHAR
STARTCHAR U+25A1
ENCODING 9633
SWIDTH 888 0
DWIDTH 8 0
BBX 6 6 1 0
BITMAP
FC
84
84
84
84
FC
ENDCHAR
STARTCHAR U+25C6
ENCODING 9670
SWIDTH 888 0
DWIDTH 8 0
BBX 7 7 0 0
BITMAP
10
38
7C
FE
7C
38
10
ENDCHAR
STARTCHAR U+25C7
ENCODING 9671
SWIDTH 888 0
DWIDTH 8 0
BBX 7 7 0 0
BITMAP
10
38
6C
C6
6C
38
10
ENDCHAR
STARTCHAR U+25CA
ENCODING 9674
SWIDTH 888 0
DWIDTH 8 0
BBX 7 7 0 0
BITMAP
10
38
6C
C6
6C
38
10
ENDCHAR
STARTCHAR U+25CB
ENCODING 9675
SWIDTH 888 0
DWIDTH 8 0
BBX 6 6 1 0
BITMAP
78
CC
84
84
CC
78
ENDCHAR
STARTCHAR U+25CF
ENCODING 9679
SWIDTH 888 0
DWIDTH 8 0
BBX 6 6 1 0
BITMAP
78
FC
FC
FC
FC
78
ENDCHAR
STARTCHAR U+25D0
ENCODING 9680
SWIDTH 888 0
DWIDTH 8 0
BBX 6 6 1 0
BITMAP
78
EC
E4
E4
EC
78
ENDCHAR
STARTCHAR U+25D1
ENCODING 9681
SWIDTH 888 0
DWIDTH 8 0
BBX 6 6 1 0
BITMAP
78
DC
9C
9C
DC
78
ENDCHAR
STARTCHAR U+2600
ENCODING 9728
SWIDTH 888 0
DWIDTH 8 0
BBX 7 7 0 0
BITMAP
10
54
38
FE
38
54
10
ENDCHAR
STARTCHAR U+263C
ENCODING 9788
SWIDTH 888 0
DWIDTH 8 0
BBX 7 7 0 0
BITMAP
10
54
38
EE
38
54
10
ENDCHAR
STARTCHAR U+270E
ENCODING 9998
SWIDTH 888 0
DWIDTH 8 0
BBX 7 7 0 0
BITMAP
60
90
A8
44
2A
12
0E
ENDCHAR
STARTCHAR U+2710
ENCODING 10000
SWIDTH 888 0
DWIDTH 8 0
BBX 7 7 0 0
BITMAP
0E
12
2A
44
A8
90
60
ENDCHAR
STARTCHAR U+2713
ENCODING 10003
SWIDTH 888 0
DWIDTH 8 0
BBX 8 6 0 0
BITMAP
03
06
0C
D8
70
20
ENDCHAR
STARTCHAR U+2B58
ENCODING 11096
SWIDTH 888 0
DWIDTH 8 0
BBX 7 7 0 0
BITMAP
38
44
82
82
82
44
38
ENDCHAR
STARTCHAR U+F700
ENCODING 63232
SWIDTH 888 0
DWIDTH 8 0
BBX 6 7 1 0
BITMAP
74
B8
CC
D8
F0
D8
CC
ENDCHAR
STARTCHAR U+F701
ENCODING 63233
SWIDTH 888 0
DWIDTH 8 0
BBX 6 7 1 0
BITMAP
74
B8
CC
D8
F0
D8
CC
ENDCHAR
STARTCHAR U+F702
ENCODING 63234
SWIDTH 888 0
DWIDTH 8 0
BBX 6 5 1 0
BITMAP
D8
D8
D8
D8
FC
ENDCHAR
STARTCHAR U+F703
ENCODING 63235
SWIDTH 888 0
DWIDTH 8 0
BBX 8 5 0 0
BITMAP
EE
66
66
66
33
ENDCHAR
STARTCHAR U+F704
ENCODING 63236
SWIDTH 888 0
DWIDTH 8 0
BBX 7 7 0 0
BITMAP
34
58
C6
EE
FE
D6
C6
ENDCHAR
STARTCHAR U+F705
ENCODING 63237
SWIDTH 888 0
DWIDTH 8 0
BBX 7 7 0 0
BITMAP
34
58
EC
FE
D6
D6
D6
ENDCHAR
STARTCHAR U+F800
ENCODING 63488
SWIDTH 888 0
DWIDTH 8 0
BBX 8 7 0 0
BITMAP
7E
81
91
5A
99
81
7E
ENDCHAR
STARTCHAR U+F801
ENCODING 63489
SWIDTH 888 0
DWIDTH 8 0
BBX 7 7 0 0
BITMAP
E0
90
A8
44
2A
12
0C
ENDCHAR
STARTCHAR U+F802
ENCODING 63490
SWIDTH 888 0
DWIDTH 8 0
BBX 7 7 0 0
BITMAP
0C
12
2A
44
A8
90
E0
ENDCHAR
STARTCHAR U+F803
ENCODING 63491
SWIDTH 888 0
DWIDTH 8 0
BBX 7 7 0 0
BITMAP
10
44
10
98
1C
5E
10
ENDCHAR
STARTCHAR U+F804
ENCODING 63492
SWIDTH 888 0
DWIDTH 8 0
BBX 6 6 1 0
BITMAP
30
78
FC
00
FC
FC
ENDCHAR
STARTCHAR U+F810
ENCODING 63504
SWIDTH 888 0
DWIDTH 8 0
BBX 7 7 0 0
BITMAP
EE
EE
EE
00
EE
EE
EE
ENDCHAR
STARTCHAR U+F811
ENCODING 63505
SWIDTH 888 0
DWIDTH 8 0
BBX 7 7 0 0
BITMAP
FE
82
BA
82
BA
82
FE
ENDCHAR
STARTCHAR U+F812
ENCODING 63506
SWIDTH 888 0
DWIDTH 8 0
BBX 7 7 0 0
BITMAP
08
10
6C
92
84
92
6C
ENDCHAR
STARTCHAR U+F813
ENCODING 63507
SWIDTH 888 0
DWIDTH 8 0
BBX 7 7 0 0
BITMAP
08
10
6C
FE
FC
FE
6C
ENDCHAR
STARTCHAR U+F820
ENCODING 63520
SWIDTH 888 0
DWIDTH 8 0
BBX 7 7 0 0
BITMAP
54
54
54
54
D6
D6
92
ENDCHAR
STARTCHAR U+F821
ENCODING 63521
SWIDTH 888 0
DWIDTH 8 0
BBX 7 7 0 0
BITMAP
38
78
E6
C0
E6
78
38
ENDCHAR
STARTCHAR U+F822
ENCODING 63522
SWIDTH 888 0
DWIDTH 8 0
BBX 7 6 0 0
BITMAP
0E
1E
3E
6E
FE
CE
ENDCHAR
STARTCHAR U+F823
ENCODING 63523
SWIDTH 888 0
DWIDTH 8 0
BBX 7 6 0 0
BITMAP
0E
1A
3A
6A
FA
CE
ENDCHAR
STARTCHAR U+F8FF
ENCODING 63743
SWIDTH 888 0
DWIDTH 8 0
BBX 7 7 0 0
BITMAP
08
10
6C
FE
FC
FE
6C
ENDCHAR
STARTCHAR U+FB00
ENCODING 64256
SWIDTH 888 0
DWIDTH 8 0
BBX 8 7 0 0
BITMAP
33
66
FF
66
66
66
66
ENDCHAR
STARTCHAR U+FB01
ENCODING 64257
SWIDTH 888 0
DWIDTH 8 0
BBX 7 7 0 0
BITMAP
38
60
FE
66
66
66
66
ENDCHAR
STARTCHAR U+FB02
ENCODING 64258
SWIDTH 888 0
DWIDTH 8 0
BBX 7 7 0 0
BITMAP
3E
66
F6
66
66
66
66
ENDCHAR
STARTCHAR U+FB03
ENCODING 64259
SWIDTH 888 0
DWIDTH 8 0
BBX 8 7 0 0
BITMAP
6C
D8
FF
DB
DB
DB
DB
ENDCHAR
STARTCHAR U+FB04
ENCODING 64260
SWIDTH 888 0
DWIDTH 8 0
BBX 8 7 0 0
BITMAP
6F
DB
FF
DB
DB
DB
DB
ENDCHAR
STARTCHAR U+1F505
ENCODING 128261
SWIDTH 888 0
DWIDTH 8 0
BBX 7 7 0 0
BITMAP
10
44
10
AA
10
44
10
ENDCHAR
STARTCHAR U+1F506
ENCODING 128262
SWIDTH 888 0
DWIDTH 8 0
BBX 7 7 0 0
BITMAP
10
54
38
EE
38
54
10
ENDCHAR
STARTCHAR U+1F507
ENCODING 128263
SWIDTH 888 0
DWIDTH 8 0
BBX 8 7 0 0
BITMAP
10
30
F5
F2
F5
30
10
ENDCHAR
STARTCHAR U+1F508
ENCODING 128264
SWIDTH 888 0
DWIDTH 8 0
BBX 4 7 0 0
BITMAP
10
30
F0
F0
F0
30
10
ENDCHAR
STARTCHAR U+1F509
ENCODING 128265
SWIDTH 888 0
DWIDTH 8 0
BBX 7 7 0 0
BITMAP
10
30
F4
F2
F4
30
10
ENDCHAR
STARTCHAR U+1F50A
ENCODING 128266
SWIDTH 888 0
DWIDTH 8 0
BBX 8 7 0 0
BITMAP
14
32
F5
F3
F5
32
14
ENDCHAR
STARTCHAR U+1F512
ENCODING 128274
SWIDTH 888 0
DWIDTH 8 0
BBX 6 7 1 0
BITMAP
30
48
48
FC
FC
FC
FC
ENDCHAR
STARTCHAR U+1F513
ENCODING 128275
SWIDTH 888 0
DWIDTH 8 0
BBX 6 7 1 0
BITMAP
30
48
40
FC
FC
FC
FC
ENDCHAR
STARTCHAR U+FFCE0
ENCODING 1047776
SWIDTH 888 0
DWIDTH 8 0
BBX 7 7 0 0
BITMAP
EE
EE
EE
00
EE
EE
EE
ENDCHAR
STARTCHAR U+FFCE1
ENCODING 1047777
SWIDTH 888 0
DWIDTH 8 0
BBX 7 7 0 0
BITMAP
FE
82
BA
82
BA
82
FE
ENDCHAR
STARTCHAR U+FFCE2
ENCODING 1047778
SWIDTH 888 0
DWIDTH 8 0
BBX 7 7 0 0
BITMAP
08
10
6C
92
84
92
6C
ENDCHAR
STARTCHAR U+FFCE3
ENCODING 1047779
SWIDTH 888 0
DWIDTH 8 0
BBX 7 7 0 0
BITMAP
08
10
6C
FE
FC
FE
6C
ENDCHAR
STARTCHAR U+FFCE4
ENCODING 1047780
SWIDTH 888 0
DWIDTH 8 0
BBX 7 7 0 0
BITMAP
54
54
54
54
D6
D6
92
ENDCHAR
STARTCHAR U+FFCE5
ENCODING 1047781
SWIDTH 888 0
DWIDTH 8 0
BBX 7 7 0 0
BITMAP
38
78
E6
C0
E6
78
38
ENDCHAR
STARTCHAR U+FFCE6
ENCODING 1047782
SWIDTH 888 0
DWIDTH 8 0
BBX 7 6 0 0
BITMAP
0E
1E
3E
6E
FE
CE
ENDCHAR
STARTCHAR U+FFCE7
ENCODING 1047783
SWIDTH 888 0
DWIDTH 8 0
BBX 7 6 0 0
BITMAP
0E
1A
3A
6A
FA
CE
ENDCHAR
STARTCHAR .notdef
ENCODING -1
SWIDTH 888 0
DWIDTH 8 0
BBX 6 6 1 0
BITMAP
FC
CC
CC
CC
CC
FC
ENDCHAR
ENDFONT
